<svg viewBox="0 0 16 20" xmlns="http://www.w3.org/2000/svg" xmlns:xlink="http://www.w3.org/1999/xlink" width="16.000000" height="20.000000" fill="none" customFrame="#000000">
	<g id="Group">
		<g id="Group">
			<path id="Vector" d="M8 9.796C10.719 9.796 12.923 7.603 12.923 4.898C12.923 2.193 10.72 0 8 0C5.28 0 3.077 2.193 3.077 4.898C3.077 7.603 5.28 9.796 8 9.796ZM10.564 11.837L5.436 11.837C2.462 11.837 0 14.286 0 17.245C0 17.959 0.308 18.572 0.923 18.878C1.846 19.388 3.897 20 8 20C12.103 20 14.154 19.388 15.077 18.878C15.357 18.7068 15.5887 18.4669 15.7502 18.1812C15.9117 17.8954 15.9977 17.5732 16 17.245C16 14.184 13.539 11.837 10.564 11.837Z" fill="rgb(76,149,108)" fill-rule="nonzero" />
		</g>
	</g>
</svg>
